<svg width="23" height="18" viewBox="0 0 23 18" fill="none" xmlns="http://www.w3.org/2000/svg">
<path d="M8.125 2.125C8.125 1.08984 8.96484 0.25 10 0.25H12.5C13.5352 0.25 14.375 1.08984 14.375 2.125V4.625C14.375 5.66016 13.5352 6.5 12.5 6.5H12.1875V8.0625H18.125C19.332 8.0625 20.3125 9.04297 20.3125 10.25V11.5H20.625C21.6602 11.5 22.5 12.3398 22.5 13.375V15.875C22.5 16.9102 21.6602 17.75 20.625 17.75H18.125C17.0898 17.75 16.25 16.9102 16.25 15.875V13.375C16.25 12.3398 17.0898 11.5 18.125 11.5H18.4375V10.25C18.4375 10.0781 18.2969 9.9375 18.125 9.9375H12.1875V11.5H12.5C13.5352 11.5 14.375 12.3398 14.375 13.375V15.875C14.375 16.9102 13.5352 17.75 12.5 17.75H10C8.96484 17.75 8.125 16.9102 8.125 15.875V13.375C8.125 12.3398 8.96484 11.5 10 11.5H10.3125V9.9375H4.375C4.20312 9.9375 4.0625 10.0781 4.0625 10.25V11.5H4.375C5.41016 11.5 6.25 12.3398 6.25 13.375V15.875C6.25 16.9102 5.41016 17.75 4.375 17.75H1.875C0.839844 17.75 0 16.9102 0 15.875V13.375C0 12.3398 0.839844 11.5 1.875 11.5H2.1875V10.25C2.1875 9.04297 3.16797 8.0625 4.375 8.0625H10.3125V6.5H10C8.96484 6.5 8.125 5.66016 8.125 4.625V2.125Z" fill="#D3AE78"/>
</svg>
