<svg width="15" height="20" viewBox="0 0 15 20" fill="none" xmlns="http://www.w3.org/2000/svg">
<path fill-rule="evenodd" clip-rule="evenodd" d="M2.4 0C1.76348 0 1.15303 0.252856 0.702944 0.702944C0.252856 1.15303 0 1.76348 0 2.4V16.8C0 17.4365 0.252856 18.047 0.702944 18.4971C1.15303 18.9471 1.76348 19.2 2.4 19.2H12C12.6365 19.2 13.247 18.9471 13.6971 18.4971C14.1471 18.047 14.4 17.4365 14.4 16.8V6.4968C14.3999 5.86033 14.1469 5.24998 13.6968 4.8L9.6 0.7032C9.15002 0.253081 8.53967 0.00013593 7.9032 0H2.4ZM4.8 12C4.8 11.6817 4.67357 11.3765 4.44853 11.1515C4.22348 10.9264 3.91826 10.8 3.6 10.8C3.28174 10.8 2.97652 10.9264 2.75147 11.1515C2.52643 11.3765 2.4 11.6817 2.4 12V15.6C2.4 15.9183 2.52643 16.2235 2.75147 16.4485C2.97652 16.6736 3.28174 16.8 3.6 16.8C3.91826 16.8 4.22348 16.6736 4.44853 16.4485C4.67357 16.2235 4.8 15.9183 4.8 15.6V12ZM7.2 8.4C7.51826 8.4 7.82348 8.52643 8.04853 8.75147C8.27357 8.97651 8.4 9.28174 8.4 9.6V15.6C8.4 15.9183 8.27357 16.2235 8.04853 16.4485C7.82348 16.6736 7.51826 16.8 7.2 16.8C6.88174 16.8 6.57652 16.6736 6.35147 16.4485C6.12643 16.2235 6 15.9183 6 15.6V9.6C6 9.28174 6.12643 8.97651 6.35147 8.75147C6.57652 8.52643 6.88174 8.4 7.2 8.4ZM12 7.2C12 6.88174 11.8736 6.57652 11.6485 6.35147C11.4235 6.12643 11.1183 6 10.8 6C10.4817 6 10.1765 6.12643 9.95147 6.35147C9.72643 6.57652 9.6 6.88174 9.6 7.2V15.6C9.6 15.9183 9.72643 16.2235 9.95147 16.4485C10.1765 16.6736 10.4817 16.8 10.8 16.8C11.1183 16.8 11.4235 16.6736 11.6485 16.4485C11.8736 16.2235 12 15.9183 12 15.6V7.2Z" fill="#0E336A"/>
</svg>
