<svg width="127" height="37" viewBox="0 0 127 37" fill="none" xmlns="http://www.w3.org/2000/svg">
<path d="M2.034 13.82C2.058 13.436 2.076 12.998 2.088 12.506C2.124 11.966 2.142 11.444 2.142 10.94V3.362C1.986 3.362 1.728 3.398 1.368 3.47C1.008 3.542 0.69 3.614 0.414 3.686L0.342 3.578L0.756 1.4H4.932V1.58C4.908 2.228 4.89 2.762 4.878 3.182C4.854 3.638 4.842 4.064 4.842 4.46V6.566H6.714L7.92 4.982C8.136 4.694 8.34 4.418 8.532 4.154C8.724 3.89 8.91 3.62 9.09 3.344C8.97 3.344 8.802 3.362 8.586 3.398C8.37 3.422 8.16 3.452 7.956 3.488L7.308 3.56L7.236 3.452L7.848 1.4H13.14V1.562C12.924 1.838 12.708 2.114 12.492 2.39C12.288 2.654 12.084 2.918 11.88 3.182C11.676 3.458 11.466 3.734 11.25 4.01C11.034 4.274 10.818 4.55 10.602 4.838L8.766 7.232L11.52 11.084C12.18 11.96 12.912 12.854 13.716 13.766V14H7.902L7.416 12.056L7.488 11.948C7.596 11.96 7.71 11.978 7.83 12.002C7.95 12.026 8.07 12.056 8.19 12.092C8.382 12.152 8.58 12.206 8.784 12.254C8.988 12.302 9.162 12.332 9.306 12.344L6.75 8.834H4.842V10.94C4.842 11.336 4.854 11.762 4.878 12.218C4.89 12.638 4.908 13.172 4.932 13.82V14H2.034V13.82ZM19.7712 14.666L20.2032 13.676C20.1312 13.724 20.0532 13.772 19.9692 13.82C19.8852 13.856 19.7952 13.892 19.6992 13.928C19.5072 14 19.2912 14.06 19.0512 14.108C18.8232 14.156 18.5832 14.18 18.3312 14.18C17.4912 14.18 16.7232 13.988 16.0272 13.604C15.3432 13.22 14.8032 12.68 14.4072 11.984C14.0112 11.288 13.8132 10.484 13.8132 9.572C13.8132 8.648 14.0172 7.826 14.4252 7.106C14.8452 6.386 15.4152 5.828 16.1352 5.432C16.8552 5.024 17.6592 4.82 18.5472 4.82C19.4472 4.82 20.2452 5.018 20.9412 5.414C21.6372 5.81 22.1832 6.362 22.5792 7.07C22.9752 7.766 23.1732 8.564 23.1732 9.464C23.1732 9.596 23.1672 9.728 23.1552 9.86C23.1552 9.992 23.1432 10.118 23.1192 10.238H16.0812C16.1532 10.646 16.2972 11.006 16.5132 11.318C16.7292 11.63 17.0112 11.876 17.3592 12.056C17.7072 12.224 18.1032 12.308 18.5472 12.308C18.9312 12.308 19.2852 12.242 19.6092 12.11C19.9332 11.966 20.2032 11.786 20.4192 11.57C20.6472 11.354 20.8152 11.126 20.9232 10.886L20.9592 10.814L22.9032 11.3L21.9312 14.756H19.8612L19.7712 14.666ZM20.8152 8.672C20.7312 8.276 20.5812 7.934 20.3652 7.646C20.1612 7.358 19.8972 7.136 19.5732 6.98C19.2492 6.812 18.8772 6.728 18.4572 6.728C18.0372 6.728 17.6652 6.812 17.3412 6.98C17.0172 7.136 16.7472 7.358 16.5312 7.646C16.3272 7.934 16.1832 8.276 16.0992 8.672H20.8152ZM35.5372 12.002L35.1592 14H31.5772V13.82C31.6252 13.016 31.6492 12.056 31.6492 10.94V8.204L25.9432 14.522H25.5472C25.6072 13.25 25.6372 11.936 25.6372 10.58V6.818C25.4332 6.818 25.0132 6.896 24.3772 7.052L24.1252 7.106L24.0712 6.998L24.4312 5H26.0692C26.3692 5 26.7172 4.988 27.1132 4.964C27.5212 4.94 27.8212 4.91 28.0132 4.874L28.0312 4.982C27.9712 5.846 27.9412 6.866 27.9412 8.042V9.572L31.9552 5H32.0632C32.3032 5 32.6152 4.988 32.9992 4.964C33.3832 4.94 33.7252 4.91 34.0252 4.874L34.0612 4.982C34.0372 5.186 34.0192 5.408 34.0072 5.648C34.0072 5.888 34.0012 6.14 33.9892 6.404C33.9892 6.668 33.9832 6.944 33.9712 7.232C33.9712 7.508 33.9712 7.784 33.9712 8.06V12.182C34.1272 12.182 34.5472 12.104 35.2312 11.948C35.2672 11.936 35.3032 11.93 35.3392 11.93C35.3872 11.918 35.4292 11.906 35.4652 11.894L35.5372 12.002ZM33.5032 0.373999C33.5032 1.022 33.3472 1.598 33.0352 2.102C32.7232 2.594 32.2852 2.978 31.7212 3.254C31.1692 3.518 30.5272 3.65 29.7952 3.65C29.0752 3.65 28.4332 3.518 27.8692 3.254C27.3052 2.978 26.8672 2.594 26.5552 2.102C26.2432 1.598 26.0872 1.022 26.0872 0.373999V0.284L28.1212 0.122V0.356C28.1212 0.8 28.2712 1.16 28.5712 1.436C28.8832 1.7 29.2912 1.832 29.7952 1.832C30.2992 1.832 30.7072 1.7 31.0192 1.436C31.3312 1.16 31.4872 0.8 31.4872 0.356V0.122L33.5032 0.284V0.373999ZM40.0002 13.82C40.0602 13.016 40.0902 12.056 40.0902 10.94V6.8H40.0362C39.6762 6.8 39.3522 6.854 39.0642 6.962C38.7882 7.058 38.5482 7.196 38.3442 7.376C38.1402 7.556 37.9842 7.778 37.8762 8.042L37.7322 8.348L35.9322 7.808L37.0122 4.028H39.1542L39.2262 4.136L38.7582 5H43.7262L43.2582 4.136L43.3302 4.028H45.4722L46.5522 7.808L44.7522 8.348L44.6082 8.042C44.5002 7.778 44.3442 7.556 44.1402 7.376C43.9482 7.196 43.7082 7.058 43.4202 6.962C43.1442 6.854 42.8202 6.8 42.4482 6.8H42.3942V12.182C42.5622 12.182 42.8382 12.152 43.2222 12.092C43.6182 12.032 43.9602 11.966 44.2482 11.894L44.3202 12.002L43.9422 14H40.0002V13.82ZM48.4867 17.42C48.5467 16.46 48.5767 15.5 48.5767 14.54V6.818C48.3727 6.818 47.9527 6.896 47.3167 7.052L47.0647 7.106L47.0107 6.998L47.3707 5H48.6487C48.9487 5 49.2967 4.988 49.6927 4.964C50.0887 4.94 50.3827 4.91 50.5747 4.874L50.6107 4.982C50.6107 5.078 50.6047 5.174 50.5927 5.27C50.5927 5.354 50.5927 5.444 50.5927 5.54C50.5807 5.624 50.5747 5.714 50.5747 5.81C50.5747 5.906 50.5687 6.002 50.5567 6.098C50.8927 5.69 51.3187 5.378 51.8347 5.162C52.3627 4.934 52.9267 4.82 53.5267 4.82C54.3547 4.82 55.0927 5.024 55.7407 5.432C56.3887 5.828 56.8927 6.38 57.2527 7.088C57.6247 7.796 57.8107 8.6 57.8107 9.5C57.8107 10.388 57.6247 11.186 57.2527 11.894C56.8807 12.602 56.3707 13.16 55.7227 13.568C55.0747 13.976 54.3427 14.18 53.5267 14.18C52.9987 14.18 52.5007 14.09 52.0327 13.91C51.5767 13.73 51.1867 13.484 50.8627 13.172V15.782C51.0907 15.782 51.5347 15.704 52.1947 15.548C52.3147 15.536 52.4047 15.518 52.4647 15.494L52.5367 15.602L52.1407 17.6H48.4867V17.42ZM53.0947 12.164C53.5267 12.164 53.9167 12.05 54.2647 11.822C54.6247 11.594 54.9067 11.276 55.1107 10.868C55.3147 10.46 55.4167 10.004 55.4167 9.5C55.4167 8.996 55.3147 8.54 55.1107 8.132C54.9067 7.724 54.6247 7.406 54.2647 7.178C53.9167 6.95 53.5267 6.836 53.0947 6.836C52.6507 6.836 52.2547 6.95 51.9067 7.178C51.5587 7.406 51.2827 7.724 51.0787 8.132C50.8747 8.54 50.7727 8.996 50.7727 9.5C50.7727 10.004 50.8747 10.46 51.0787 10.868C51.2827 11.276 51.5587 11.594 51.9067 11.822C52.2547 12.05 52.6507 12.164 53.0947 12.164ZM70.1837 12.002L69.8057 14H66.2237V13.82C66.2717 13.016 66.2957 12.056 66.2957 10.94V8.204L60.5897 14.522H60.1937C60.2537 13.25 60.2837 11.936 60.2837 10.58V6.818C60.0797 6.818 59.6597 6.896 59.0237 7.052L58.7717 7.106L58.7177 6.998L59.0777 5H60.7157C61.0157 5 61.3637 4.988 61.7597 4.964C62.1677 4.94 62.4677 4.91 62.6597 4.874L62.6777 4.982C62.6177 5.846 62.5877 6.866 62.5877 8.042V9.572L66.6017 5H66.7097C66.9497 5 67.2617 4.988 67.6457 4.964C68.0297 4.94 68.3717 4.91 68.6717 4.874L68.7077 4.982C68.6837 5.186 68.6657 5.408 68.6537 5.648C68.6537 5.888 68.6477 6.14 68.6357 6.404C68.6357 6.668 68.6297 6.944 68.6177 7.232C68.6177 7.508 68.6177 7.784 68.6177 8.06V12.182C68.7737 12.182 69.1937 12.104 69.8777 11.948C69.9137 11.936 69.9497 11.93 69.9857 11.93C70.0337 11.918 70.0757 11.906 70.1117 11.894L70.1837 12.002ZM82.2247 12.002L81.8467 14H78.2647V13.82C78.3127 13.016 78.3367 12.056 78.3367 10.94V10.508H74.6467V10.94C74.6467 11.9 74.6707 12.86 74.7187 13.82V14H72.2347V13.82C72.2947 12.86 72.3247 11.9 72.3247 10.94V6.818C72.1207 6.818 71.7007 6.896 71.0647 7.052L70.8127 7.106L70.7587 6.998L71.1187 5H72.7747C73.0747 5 73.4227 4.988 73.8187 4.964C74.2147 4.94 74.5087 4.91 74.7007 4.874L74.7367 4.982C74.6767 5.846 74.6467 6.872 74.6467 8.06V8.492H78.3367V7.448C78.3367 6.548 78.3067 5.78 78.2467 5.144V5H78.7867C79.0867 5 79.4347 4.988 79.8307 4.964C80.2267 4.94 80.5207 4.91 80.7127 4.874L80.7487 4.982C80.6887 5.702 80.6587 6.728 80.6587 8.06V12.182C80.8147 12.182 81.2347 12.104 81.9187 11.948C81.9547 11.936 81.9907 11.93 82.0267 11.93C82.0747 11.918 82.1167 11.906 82.1527 11.894L82.2247 12.002ZM84.5281 13.82C84.6001 13.016 84.6361 12.056 84.6361 10.94V3.362C84.4801 3.362 84.2221 3.398 83.8621 3.47C83.5021 3.542 83.1841 3.614 82.9081 3.686L82.8361 3.578L83.2501 1.4H90.3961L89.8741 0.409999L89.9461 0.319999L92.4301 0.337999L93.6001 4.64L91.8361 5.216L91.7821 5.108C91.5541 4.652 91.2901 4.298 90.9901 4.046C90.7021 3.782 90.3181 3.596 89.8381 3.488C89.3581 3.368 88.6981 3.308 87.8581 3.308H87.3361V6.422H88.8121C89.9881 6.422 90.9841 6.572 91.8001 6.872C92.6161 7.172 93.2281 7.604 93.6361 8.168C94.0561 8.732 94.2661 9.41 94.2661 10.202C94.2661 10.994 94.0561 11.672 93.6361 12.236C93.2281 12.8 92.6161 13.238 91.8001 13.55C90.9841 13.85 89.9881 14 88.8121 14H84.5281V13.82ZM88.9921 11.93C89.7721 11.93 90.3841 11.768 90.8281 11.444C91.2721 11.12 91.4941 10.67 91.4941 10.094C91.4941 9.578 91.2721 9.17 90.8281 8.87C90.3841 8.558 89.7721 8.402 88.9921 8.402H87.3361V11.93H88.9921ZM95.2145 14.18L96.9065 13.64L96.9425 13.748L97.0325 14C97.2125 14.444 97.3805 14.798 97.5365 15.062C97.6925 15.338 97.8605 15.548 98.0405 15.692C98.2205 15.836 98.4245 15.908 98.6525 15.908C98.8325 15.908 98.9765 15.842 99.0845 15.71C99.2045 15.578 99.2645 15.38 99.2645 15.116V14.972C99.2645 14.768 99.2405 14.552 99.1925 14.324C99.1445 14.108 99.0665 13.88 98.9585 13.64C98.9465 13.628 98.9405 13.616 98.9405 13.604C98.9405 13.592 98.9345 13.58 98.9225 13.568L96.5825 8.96C96.1625 8.096 95.6045 7.064 94.9085 5.864L94.4945 5.162V5H99.3185L99.6065 6.746L99.5165 6.89C99.3605 6.854 99.1385 6.836 98.8505 6.836C98.5745 6.824 98.3285 6.818 98.1125 6.818L100.111 11.246C100.147 11.318 100.177 11.39 100.201 11.462C100.225 11.522 100.255 11.588 100.291 11.66C100.315 11.732 100.339 11.804 100.363 11.876C100.387 11.948 100.417 12.02 100.453 12.092C100.477 12.02 100.501 11.948 100.525 11.876C100.549 11.792 100.573 11.714 100.597 11.642C100.633 11.558 100.657 11.486 100.669 11.426C100.693 11.354 100.717 11.276 100.741 11.192L101.929 8.042C101.965 7.958 102.043 7.736 102.163 7.376C102.211 7.28 102.247 7.184 102.271 7.088C102.307 6.992 102.337 6.902 102.361 6.818C102.169 6.818 101.947 6.83 101.695 6.854C101.455 6.866 101.245 6.89 101.065 6.926L100.975 6.818L101.281 5H105.385V5.162C105.241 5.474 105.085 5.816 104.917 6.188C104.473 7.148 104.083 8.03 103.747 8.834L101.947 13.136C101.851 13.364 101.779 13.592 101.731 13.82C101.683 14.036 101.659 14.252 101.659 14.468V14.918C101.659 15.818 101.437 16.52 100.993 17.024C100.549 17.528 99.9785 17.78 99.2825 17.78C99.0905 17.78 98.9045 17.762 98.7245 17.726C98.5445 17.69 98.3765 17.642 98.2205 17.582C98.0525 17.51 97.9145 17.438 97.8065 17.366L98.0585 18.14L97.9865 18.212H96.0785L95.2145 14.18ZM107.321 17.42C107.381 16.46 107.411 15.5 107.411 14.54V6.818C107.207 6.818 106.787 6.896 106.151 7.052L105.899 7.106L105.845 6.998L106.205 5H107.483C107.783 5 108.131 4.988 108.527 4.964C108.923 4.94 109.217 4.91 109.409 4.874L109.445 4.982C109.445 5.078 109.439 5.174 109.427 5.27C109.427 5.354 109.427 5.444 109.427 5.54C109.415 5.624 109.409 5.714 109.409 5.81C109.409 5.906 109.403 6.002 109.391 6.098C109.727 5.69 110.153 5.378 110.669 5.162C111.197 4.934 111.761 4.82 112.361 4.82C113.189 4.82 113.927 5.024 114.575 5.432C115.223 5.828 115.727 6.38 116.087 7.088C116.459 7.796 116.645 8.6 116.645 9.5C116.645 10.388 116.459 11.186 116.087 11.894C115.715 12.602 115.205 13.16 114.557 13.568C113.909 13.976 113.177 14.18 112.361 14.18C111.833 14.18 111.335 14.09 110.867 13.91C110.411 13.73 110.021 13.484 109.697 13.172V15.782C109.925 15.782 110.369 15.704 111.029 15.548C111.149 15.536 111.239 15.518 111.299 15.494L111.371 15.602L110.975 17.6H107.321V17.42ZM111.929 12.164C112.361 12.164 112.751 12.05 113.099 11.822C113.459 11.594 113.741 11.276 113.945 10.868C114.149 10.46 114.251 10.004 114.251 9.5C114.251 8.996 114.149 8.54 113.945 8.132C113.741 7.724 113.459 7.406 113.099 7.178C112.751 6.95 112.361 6.836 111.929 6.836C111.485 6.836 111.089 6.95 110.741 7.178C110.393 7.406 110.117 7.724 109.913 8.132C109.709 8.54 109.607 8.996 109.607 9.5C109.607 10.004 109.709 10.46 109.913 10.868C110.117 11.276 110.393 11.594 110.741 11.822C111.089 12.05 111.485 12.164 111.929 12.164ZM119.028 13.82C119.088 12.86 119.118 11.9 119.118 10.94V6.818C118.914 6.818 118.494 6.896 117.858 7.052L117.606 7.106L117.552 6.998L117.912 5H123.276L122.808 4.154L122.88 4.046L125.022 4.028L126.102 7.808L124.302 8.348L124.14 8.042C124.044 7.778 123.876 7.556 123.636 7.376C123.408 7.196 123.126 7.064 122.79 6.98C122.454 6.884 122.064 6.836 121.62 6.836H121.422L121.44 12.182C121.632 12.182 121.95 12.152 122.394 12.092C122.85 12.02 123.222 11.954 123.51 11.894L123.582 12.002L123.186 14H119.028V13.82ZM2.736 36.18C2.256 36.18 1.848 36.018 1.512 35.694C1.188 35.358 1.026 34.95 1.026 34.47C1.026 33.978 1.188 33.57 1.512 33.246C1.848 32.922 2.256 32.76 2.736 32.76C3.216 32.76 3.618 32.922 3.942 33.246C4.278 33.57 4.446 33.978 4.446 34.47C4.446 34.95 4.278 35.358 3.942 35.694C3.618 36.018 3.216 36.18 2.736 36.18ZM5.6648 35.802C5.8088 35.49 5.9408 35.196 6.0608 34.92C6.1928 34.632 6.3188 34.356 6.4388 34.092C6.6788 33.576 6.9188 33.042 7.1588 32.49C7.3988 31.926 7.6508 31.302 7.9148 30.618L10.0208 25.416C9.7808 25.404 9.5228 25.398 9.2468 25.398C8.9828 25.386 8.7068 25.38 8.4188 25.38C8.3708 25.38 8.3168 25.38 8.2568 25.38C8.1968 25.38 8.1308 25.38 8.0588 25.38L8.7428 23.292C9.4148 23.34 10.1708 23.37 11.0108 23.382C11.8508 23.394 12.5588 23.4 13.1348 23.4H14.0168C14.4368 24.684 14.8568 25.86 15.2768 26.928L17.1848 31.644C17.3768 32.16 17.5988 32.742 17.8508 33.39C18.0188 33.786 18.1868 34.188 18.3548 34.596C18.5348 34.992 18.7208 35.4 18.9128 35.82V36H13.8368L13.4228 33.966L13.4768 33.858L13.7648 33.894C13.9928 33.93 14.2328 33.966 14.4848 34.002C14.7368 34.026 14.9648 34.038 15.1688 34.038L14.4668 32.166H9.7508C9.7268 32.226 9.6968 32.292 9.6608 32.364C9.6368 32.436 9.6128 32.508 9.5888 32.58C9.3728 33.132 9.1928 33.618 9.0488 34.038C9.2408 34.038 9.4568 34.026 9.6968 34.002C9.9488 33.966 10.1948 33.93 10.4348 33.894C10.4828 33.882 10.5308 33.876 10.5788 33.876C10.6388 33.864 10.6928 33.858 10.7408 33.858L10.8128 33.966L10.4168 36H5.6648V35.802ZM13.8368 30.222L13.0808 28.296C13.0688 28.26 13.0568 28.23 13.0448 28.206C13.0328 28.17 13.0208 28.14 13.0088 28.116C12.7928 27.516 12.6008 27.03 12.4328 26.658C12.2768 26.286 12.1148 25.986 11.9468 25.758L10.4168 30.222H13.8368ZM23.3727 36.18C22.5447 36.18 21.7947 35.976 21.1227 35.568C20.4627 35.16 19.9407 34.602 19.5567 33.894C19.1847 33.186 18.9987 32.388 18.9987 31.5C18.9987 30.6 19.1847 29.796 19.5567 29.088C19.9287 28.38 20.4447 27.828 21.1047 27.432C21.7767 27.024 22.5327 26.82 23.3727 26.82C23.8767 26.82 24.3447 26.904 24.7767 27.072C25.2207 27.24 25.5987 27.48 25.9107 27.792V25.218C25.6827 25.218 25.2387 25.296 24.5787 25.452C24.4587 25.464 24.3687 25.482 24.3087 25.506L24.2367 25.398L24.6327 23.4H26.3607C26.6727 23.4 27.0207 23.388 27.4047 23.364C27.7887 23.34 28.0827 23.31 28.2867 23.274L28.3227 23.382C28.3107 23.586 28.2987 23.808 28.2867 24.048C28.2867 24.288 28.2807 24.54 28.2687 24.804C28.2567 25.068 28.2447 25.344 28.2327 25.632C28.2327 25.908 28.2327 26.184 28.2327 26.46V34.182C28.4127 34.182 28.8207 34.104 29.4567 33.948C29.5047 33.936 29.5527 33.93 29.6007 33.93C29.6487 33.918 29.6967 33.906 29.7447 33.894L29.7987 34.002L29.4387 36H26.1447V35.82C26.1447 35.76 26.1447 35.694 26.1447 35.622C26.1567 35.55 26.1627 35.478 26.1627 35.406C26.1627 35.334 26.1627 35.268 26.1627 35.208C26.1747 35.136 26.1807 35.07 26.1807 35.01C25.8327 35.382 25.4187 35.67 24.9387 35.874C24.4587 36.078 23.9367 36.18 23.3727 36.18ZM23.7147 34.182C24.1467 34.182 24.5367 34.068 24.8847 33.84C25.2447 33.6 25.5267 33.276 25.7307 32.868C25.9347 32.46 26.0367 32.004 26.0367 31.5C26.0367 30.996 25.9347 30.54 25.7307 30.132C25.5267 29.724 25.2447 29.406 24.8847 29.178C24.5367 28.938 24.1467 28.818 23.7147 28.818C23.2827 28.818 22.8867 28.938 22.5267 29.178C22.1787 29.406 21.9027 29.724 21.6987 30.132C21.4947 30.54 21.3927 30.996 21.3927 31.5C21.3927 32.004 21.4947 32.46 21.6987 32.868C21.9027 33.276 22.1787 33.6 22.5267 33.84C22.8867 34.068 23.2827 34.182 23.7147 34.182ZM47.9502 34.002L47.5902 36H43.9722V35.82C44.0202 34.86 44.0442 33.9 44.0442 32.94V31.14C44.0442 30.456 43.8762 29.916 43.5402 29.52C43.2162 29.124 42.7662 28.926 42.1902 28.926C41.8302 28.926 41.5062 29.022 41.2182 29.214C40.9302 29.406 40.7022 29.676 40.5342 30.024C40.3782 30.36 40.3002 30.732 40.3002 31.14V32.94C40.3002 33.9 40.3302 34.86 40.3902 35.82V36H37.9062V35.82C37.9662 34.86 37.9962 33.9 37.9962 32.94V31.14C37.9962 30.456 37.8282 29.916 37.4922 29.52C37.1562 29.124 36.6942 28.926 36.1062 28.926C35.7582 28.926 35.4402 29.022 35.1522 29.214C34.8762 29.406 34.6542 29.676 34.4862 30.024C34.3302 30.36 34.2522 30.732 34.2522 31.14V32.94C34.2522 33.9 34.2762 34.86 34.3242 35.82V36H31.8402V35.82C31.9002 34.86 31.9302 33.9 31.9302 32.94V28.818C31.7262 28.818 31.3062 28.896 30.6702 29.052L30.4182 29.106L30.3642 28.998L30.7242 27H32.0562C32.3442 27 32.6862 26.988 33.0822 26.964C33.4902 26.94 33.7902 26.91 33.9822 26.874L34.0182 26.982C34.0182 27.066 34.0122 27.156 34.0002 27.252C34.0002 27.336 34.0002 27.42 34.0002 27.504L33.9642 28.062C34.2642 27.666 34.6422 27.36 35.0982 27.144C35.5662 26.928 36.0762 26.82 36.6282 26.82C37.2642 26.82 37.8222 26.946 38.3022 27.198C38.7942 27.438 39.1902 27.792 39.4902 28.26C39.8262 27.804 40.2582 27.45 40.7862 27.198C41.3262 26.946 41.9022 26.82 42.5142 26.82C43.2942 26.82 43.9722 26.988 44.5482 27.324C45.1362 27.66 45.5862 28.134 45.8982 28.746C46.2222 29.358 46.3842 30.078 46.3842 30.906V34.182C46.5642 34.182 46.9722 34.104 47.6082 33.948C47.6562 33.936 47.7042 33.93 47.7522 33.93C47.8002 33.918 47.8482 33.906 47.8962 33.894L47.9502 34.002ZM49.8753 35.82C49.9353 34.86 49.9653 33.9 49.9653 32.94V28.818C49.7613 28.818 49.3413 28.896 48.7053 29.052L48.4533 29.106L48.3993 28.998L48.7593 27H50.3973C50.7093 27 51.0573 26.988 51.4413 26.964C51.8373 26.94 52.1373 26.91 52.3413 26.874L52.3773 26.982C52.3173 27.846 52.2873 28.872 52.2873 30.06V34.182C52.4193 34.182 52.8153 34.11 53.4753 33.966L53.7813 33.894L53.8353 34.002L53.4753 36H49.8753V35.82ZM52.5033 22.59L50.8833 25.974H50.7033L49.0833 22.59H52.5033ZM66.165 34.002L65.787 36H62.169V35.82C62.229 35.016 62.259 34.056 62.259 32.94V31.14C62.259 30.468 62.073 29.934 61.701 29.538C61.341 29.13 60.867 28.926 60.279 28.926C59.895 28.926 59.553 29.022 59.253 29.214C58.953 29.406 58.719 29.676 58.551 30.024C58.383 30.36 58.299 30.732 58.299 31.14V32.94C58.299 33.9 58.323 34.86 58.371 35.82V36H55.887V35.82C55.947 34.86 55.977 33.9 55.977 32.94V28.818C55.773 28.818 55.353 28.896 54.717 29.052L54.465 29.106L54.411 28.998L54.771 27H56.103C56.391 27 56.733 26.988 57.129 26.964C57.525 26.94 57.819 26.91 58.011 26.874L58.065 26.982C58.053 27.162 58.041 27.342 58.029 27.522C58.017 27.702 58.005 27.888 57.993 28.08C58.317 27.684 58.719 27.378 59.199 27.162C59.679 26.934 60.213 26.82 60.801 26.82C61.557 26.82 62.223 26.988 62.799 27.324C63.375 27.66 63.819 28.14 64.131 28.764C64.443 29.376 64.599 30.09 64.599 30.906V34.182C64.755 34.182 65.175 34.104 65.859 33.948C65.895 33.936 65.931 33.93 65.967 33.93C66.015 33.918 66.057 33.906 66.093 33.894L66.165 34.002Z" fill="#D3AE78"/>
</svg>
